<?xml version="1.0" encoding="UTF-8"?>
<svg xmlns="http://www.w3.org/2000/svg" width="512" height="512" viewBox="0 0 2000 2000">
<g transform="translate(0.000000,2000.000000) scale(0.100000,-0.100000)"
fill="#ffffff" stroke="none">
<path d="M14266 16913 c-18 -414 -78 -717 -210 -1059 -90 -237 -110 -277 -231
-479 -358 -600 -891 -1003 -1553 -1175 -150 -40 -305 -57 -607 -70 -320 -13
-374 -17 -525 -41 -240 -38 -506 -117 -675 -202 -121 -60 -313 -198 -428 -306
-27 -26 -52 -47 -57 -49 -29 -10 -258 -297 -369 -462 -88 -130 -193 -270 -222
-297 -13 -12 -50 -34 -82 -48 -66 -31 -105 -29 -170 8 -143 80 -184 405 -86
673 65 178 206 422 365 630 l29 37 -35 -5 c-97 -16 -439 -169 -558 -250 -79
-53 -206 -165 -295 -258 -237 -249 -404 -626 -543 -1225 -25 -110 -70 -272
-99 -360 -64 -195 -177 -433 -239 -502 -90 -100 -218 -138 -310 -93 -92 44
-127 122 -128 285 -1 92 3 124 25 196 23 75 96 230 178 376 13 23 21 45 17 49
-7 7 -98 -46 -253 -149 -451 -299 -760 -708 -924 -1221 -130 -406 -131 -827
-2 -1212 123 -368 322 -694 442 -724 19 -5 104 -29 191 -54 261 -76 415 -108
908 -185 316 -50 374 -57 580 -76 947 -85 1905 -92 2900 -20 393 29 545 46
1000 116 450 70 569 94 798 165 130 41 161 63 327 235 239 247 376 545 460
994 74 402 105 517 176 658 64 128 108 191 205 299 90 99 184 175 299 241 174
100 271 132 452 149 67 7 119 16 117 20 -10 15 -158 85 -249 117 -124 44 -298
87 -435 107 -208 30 -450 8 -673 -62 -250 -79 -399 -188 -695 -512 -105 -113
-199 -190 -261 -211 -55 -18 -159 -14 -206 9 -168 81 -239 315 -160 526 32 85
133 247 211 338 81 95 165 167 309 264 113 75 172 112 468 283 222 129 428
282 585 434 171 165 266 281 406 493 241 365 348 638 445 1132 11 58 25 154
31 214 13 142 13 506 -1 621 -30 253 -123 660 -205 895 -82 236 -245 589 -367
793 l-64 108 -7 -158z"/>
<path d="M13311 16214 c-2 -25 -171 -225 -295 -350 -162 -162 -264 -237 -431
-319 -257 -127 -395 -155 -763 -155 -370 0 -578 -27 -783 -100 -362 -129 -623
-346 -854 -710 -76 -120 -212 -386 -203 -395 4 -4 26 8 50 27 101 82 312 215
433 273 169 82 276 117 460 149 189 33 343 34 620 5 248 -26 417 -22 575 15
360 84 637 255 836 517 83 110 212 356 251 479 42 136 121 535 110 562 -4 9
-6 9 -6 2z"/>
<path d="M15436 13839 c-2 -8 -12 -48 -21 -89 -21 -92 -134 -341 -199 -439
-55 -82 -219 -253 -286 -299 -26 -16 -93 -56 -150 -87 -270 -147 -402 -287
-498 -526 -44 -111 -77 -227 -68 -236 3 -3 35 22 70 55 81 75 190 140 276 164
36 10 119 23 185 29 242 22 397 85 539 220 99 94 162 183 206 293 46 115 60
193 60 348 0 164 -10 242 -55 423 -33 134 -49 174 -59 144z"/>
<path d="M5840 9747 c-109 -82 -220 -199 -253 -268 -44 -95 -51 -153 -49 -434
4 -559 58 -923 208 -1385 131 -406 398 -906 673 -1260 263 -338 644 -714 986
-970 801 -599 1903 -922 2900 -850 491 36 937 139 1428 330 119 46 450 209
592 291 363 209 822 589 1098 908 177 205 449 597 569 821 97 179 117 221 196
405 139 325 232 678 282 1065 51 401 66 799 36 941 -16 73 -53 155 -96 209
-61 77 -287 250 -326 250 -11 0 -104 -265 -119 -337 -8 -41 5 -65 51 -94 37
-23 84 -103 84 -144 0 -42 -48 -121 -102 -170 -179 -161 -589 -311 -1273 -465
-216 -49 -837 -141 -1206 -179 -814 -85 -2084 -91 -2939 -15 -200 17 -881 113
-1075 150 -159 31 -589 135 -699 170 -316 98 -577 210 -690 293 -28 21 -70 58
-93 83 -99 109 -96 156 17 298 l21 26 -20 64 c-11 36 -29 103 -41 150 -28 114
-52 180 -64 180 -6 0 -49 -29 -96 -63z m221 -1156 c116 -61 455 -197 609 -244
273 -84 322 -98 441 -126 313 -75 700 -148 954 -181 170 -21 878 -90 1035 -99
1248 -78 2678 21 3701 254 464 106 911 256 1171 392 59 32 109 55 112 52 6 -6
-22 -231 -44 -356 -95 -519 -293 -999 -613 -1478 -130 -194 -365 -475 -528
-630 -399 -380 -955 -735 -1444 -922 -519 -199 -1149 -300 -1649 -264 -445 31
-847 126 -1282 302 -760 306 -1489 906 -1942 1596 -244 371 -434 802 -537
1218 -40 161 -97 535 -81 535 2 0 45 -22 97 -49z"/>
<path d="M12680 4910 c-24 -7 -284 -122 -397 -175 -105 -49 -183 -152 -183
-240 0 -52 40 -103 124 -157 79 -51 108 -57 299 -68 89 -5 223 -15 299 -22
191 -17 193 -16 337 134 64 66 121 130 128 141 19 35 -8 112 -51 149 -11 10
-93 54 -181 99 -88 45 -164 85 -170 89 -17 12 -150 60 -165 59 -8 0 -26 -4
-40 -9z"/>
<path d="M7705 4786 c-208 -61 -295 -119 -295 -194 0 -33 10 -46 108 -143 119
-118 168 -149 237 -149 41 0 376 63 474 90 37 10 40 13 46 54 10 64 -2 103
-47 152 -41 45 -163 130 -273 190 -77 43 -106 43 -250 0z"/>
<path d="M14105 4583 c-51 -11 -206 -69 -266 -99 -66 -33 -123 -86 -140 -131
-13 -35 -11 -89 4 -101 6 -5 91 -50 187 -98 l175 -89 80 0 c67 1 94 6 165 34
202 80 284 117 294 133 7 12 7 31 -2 65 -16 63 -110 156 -202 200 -118 56
-252 95 -295 86z"/>
<path d="M6530 4470 c-353 -69 -377 -76 -497 -135 -129 -64 -138 -74 -148
-180 -6 -61 -5 -72 11 -86 11 -9 111 -70 224 -135 113 -64 234 -135 270 -156
95 -56 142 -77 201 -88 111 -21 195 -7 464 80 99 31 254 76 345 100 205 53
214 57 207 117 -6 55 -35 96 -112 160 -88 74 -145 107 -403 239 -284 144 -269
142 -562 84z"/>
<path d="M11415 4340 c-318 -47 -347 -54 -432 -99 -59 -32 -72 -44 -95 -91
-18 -34 -28 -69 -28 -97 0 -47 -11 -36 139 -140 30 -21 99 -71 153 -111 215
-158 218 -160 317 -178 106 -19 117 -18 536 62 361 68 396 76 411 91 20 20 17
87 -5 131 -30 59 -149 173 -236 226 -44 27 -136 86 -205 130 -138 88 -202 116
-258 115 -20 0 -154 -18 -297 -39z"/>
<path d="M9068 4315 c-202 -69 -305 -122 -384 -200 -67 -65 -78 -93 -72 -175
4 -54 16 -62 186 -127 64 -25 135 -53 157 -63 96 -43 276 -108 343 -125 125
-30 184 -11 628 201 86 41 94 58 63 138 -47 128 -196 229 -509 347 -196 74
-205 74 -412 4z"/>
<path d="M13015 4001 c-71 -26 -160 -62 -197 -79 -82 -37 -195 -120 -226 -166
-28 -41 -38 -100 -23 -139 12 -32 21 -36 246 -119 352 -130 406 -148 453 -148
79 0 180 35 398 138 l209 99 -1 44 c-3 81 -36 131 -122 187 -42 27 -104 63
-137 80 -93 46 -375 145 -425 148 -35 3 -74 -7 -175 -45z"/>
<path d="M10320 3749 c-80 -39 -176 -83 -215 -99 -106 -42 -331 -155 -370
-184 -61 -47 -130 -157 -150 -241 -9 -41 -15 -86 -11 -99 19 -76 156 -193 264
-225 74 -22 259 -47 422 -56 58 -3 212 -15 342 -26 222 -20 240 -20 286 -5 78
26 153 76 265 178 57 51 136 120 175 152 105 88 108 130 17 233 -65 72 -169
136 -475 291 -234 119 -315 152 -368 152 -25 -1 -84 -24 -182 -71z"/>
<path d="M8225 3770 c-38 -11 -164 -42 -278 -70 -224 -54 -302 -81 -412 -142
-100 -56 -106 -65 -102 -167 l2 -85 50 -29 c116 -69 598 -307 660 -326 118
-37 219 -25 455 52 58 19 148 47 200 61 118 33 311 92 367 112 84 30 67 96
-62 233 -71 76 -110 100 -327 202 -106 50 -224 106 -263 124 -129 60 -176 66
-290 35z"/>
<path d="M12165 3319 c-22 -5 -96 -28 -165 -50 -220 -72 -290 -119 -290 -194
0 -38 6 -47 63 -102 34 -33 85 -73 112 -89 75 -43 150 -40 395 19 266 64 268
65 281 88 14 28 4 96 -21 137 -36 59 -237 192 -300 198 -19 2 -53 -1 -75 -7z"/>

</g>
</svg>
