<svg width="200" height="200" viewBox="0 0 200 200" xmlns="http://www.w3.org/2000/svg">
  <path d="M40,105 Q40,160 100,160 Q160,160 160,105 L155,105 Q155,150 100,150 Q45,150 45,105 Z" fill="white" />
  
  <path d="M55,115 
           C40,85 60,70 75,80 
           C65,40 100,20 120,50 
           C150,30 165,70 145,105 
           C160,115 150,135 125,120 
           C110,140 80,140 70,120 
           C60,135 45,130 55,115 Z" fill="white" />

  <rect x="90" y="170" width="20" height="12" rx="4" fill="white" />
  <rect x="65" y="165" width="18" height="10" rx="3" fill="white" />
  <rect x="117" y="165" width="18" height="10" rx="3" fill="white" />
  <rect x="45" y="162" width="12" height="8" rx="2" fill="white" />
  <rect x="143" y="162" width="12" height="8" rx="2" fill="white" />
</svg>