<?xml version="1.0" encoding="UTF-8"?>
<svg xmlns="http://www.w3.org/2000/svg" width="512" height="512" viewBox="0 0 2000 2000">
  <defs>
    <linearGradient id="grad" x1="0" y1="0" x2="1" y2="0"
      gradientUnits="userSpaceOnUse"
      gradientTransform="matrix(8426,0,0,8426,5840,13330)">
      <stop offset="0" stop-color="rgb(197,70,38)"/>
      <stop offset="0.5" stop-color="rgb(246,150,29)"/>
      <stop offset="1" stop-color="rgb(197,70,38)"/>
    </linearGradient>
  </defs>
  <g transform="translate(0.000000,2000.000000) scale(0.100000,-0.100000)"
     fill="url(#grad)" stroke="#000000" stroke-width="700"
     paint-order="stroke fill" stroke-linejoin="round">
    <path d="M14266 16913 c-18 -414 -78 -717 -210 -1059 -90 -237 -110 -277 -231
-479 -358 -600 -891 -1003 -1553 -1175 -150 -40 -305 -57 -607 -70 -320 -13
-374 -17 -525 -41 -240 -38 -506 -117 -675 -202 -121 -60 -313 -198 -428 -306
-27 -26 -52 -47 -57 -49 -29 -10 -258 -297 -369 -462 -88 -130 -193 -270 -222
-297 -13 -12 -50 -34 -82 -48 -66 -31 -105 -29 -170 8 -143 80 -184 405 -86
673 65 178 206 422 365 630 l29 37 -35 -5 c-97 -16 -439 -169 -558 -250 -79
-53 -206 -165 -295 -258 -237 -249 -404 -626 -543 -1225 -25 -110 -70 -272
-99 -360 -64 -195 -177 -433 -239 -502 -90 -100 -218 -138 -310 -93 -92 44
-127 122 -128 285 -1 92 3 124 25 196 23 75 96 230 178 376 13 23 21 45 17 49
-7 7 -98 -46 -253 -149 -451 -299 -760 -708 -924 -1221 -130 -406 -131 -827
-2 -1212 123 -368 322 -694 442 -724 19 -5 104 -29 191 -54 261 -76 415 -108
908 -185 316 -50 374 -57 580 -76 947 -85 1905 -92 2900 -20 393 29 545 46
1000 116 450 70 569 94 798 165 130 41 161 63 327 235 239 247 376 545 460
994 74 402 105 517 176 658 64 128 108 191 205 299 90 99 184 175 299 241 174
100 271 132 452 149 67 7 119 16 117 20 -10 15 -158 85 -249 117 -124 44 -298
87 -435 107 -208 30 -450 8 -673 -62 -250 -79 -399 -188 -695 -512 -105 -113
-199 -190 -261 -211 -55 -18 -159 -14 -206 9 -168 81 -239 315 -160 526 32 85
133 247 211 338 81 95 165 167 309 264 113 75 172 112 468 283 222 129 428
282 585 434 171 165 266 281 406 493 241 365 348 638 445 1132 11 58 25 154
31 214 13 142 13 506 -1 621 -30 253 -123 660 -205 895 -82 236 -245 589 -367
793 l-64 108 -7 -158z"/>
    <path d="M5840 9747 c-109 -82 -220 -199 -253 -268 -44 -95 -51 -153 -49 -434
4 -559 58 -923 208 -1385 131 -406 398 -906 673 -1260 263 -338 644 -714 986
-970 801 -599 1903 -922 2900 -850 491 36 937 139 1428 330 119 46 450 209
592 291 363 209 822 589 1098 908 177 205 449 597 569 821 97 179 117 221 196
405 139 325 232 678 282 1065 51 401 66 799 36 941 -16 73 -53 155 -96 209
-61 77 -287 250 -326 250 -11 0 -104 -265 -119 -337 -8 -41 5 -65 51 -94 37
-23 84 -103 84 -144 0 -42 -48 -121 -102 -170 -179 -161 -589 -311 -1273 -465
-216 -49 -837 -141 -1206 -179 -814 -85 -2084 -91 -2939 -15 -200 17 -881 113
-1075 150 -159 31 -589 135 -699 170 -316 98 -577 210 -690 293 -28 21 -70 58
-93 83 -99 109 -96 156 17 298 l21 26 -20 64 c-11 36 -29 103 -41 150 -28 114
-52 180 -64 180 -6 0 -49 -29 -96 -63z"/>
  </g>
</svg>
